#!OML:ASF F:\VICON\USERDATA\INSTALL\rory3\rory3.ASF
:FULLY-SPECIFIED
:DEGREES
1702
root 1.79469 9.88012 -4.79679 171.268 122.215 182.608
lowerback 26.4465 -2.19491 -4.04444
upperback 12.2349 -3.02615 0.212036
thorax -0.774181 -1.394 3.31274
lowerneck -21.3353 -8.17606 -14.7388
upperneck 9.8806 -8.54539 11.0603
head 7.62254 -3.69301 4.92936
rclavicle 3.02898e-014 -2.05742e-014
rhumerus -25.4915 20.83 -87.4846
rradius 100.113
rwrist 43.3793
rhand -40.6371 13.407
rfingers 7.12502
rthumb -13.5819 -16.13
lclavicle 3.02898e-014 -2.05742e-014
lhumerus -22.9608 -15.3907 87.7339
lradius 94.999
lwrist -27.7991
lhand -39.5011 26.2349
lfingers 7.12502
lthumb -12.4868 55.8419
rfemur -83.0099 -22.4955 19.7265
rtibia 111.14
rfoot -11.8694 5.8125
rtoes -6.34105
lfemur -82.5461 10.0002 -20.7507
ltibia 107.548
lfoot -10.1377 -13.0498
ltoes -4.67783
1703
root 1.79504 9.87907 -4.7952 171.158 122.173 182.518
lowerback 26.4217 -2.19502 -3.9658
upperback 12.2614 -3.00369 0.234951
thorax -0.73888 -1.38073 3.28555
lowerneck -21.4225 -8.1915 -14.6057
upperneck 10.0132 -8.56608 10.853
head 7.66585 -3.7141 4.83255
rclavicle -1.07791e-013 4.18939e-014
rhumerus -25.5182 20.7712 -87.466
rradius 100.143
rwrist 43.421
rhand -40.6252 13.3799
rfingers 7.12502
rthumb -13.5704 -16.1578
lclavicle -1.07791e-013 4.18939e-014
lhumerus -22.9008 -15.4301 87.7721
lradius 94.9369
lwrist -27.8191
lhand -39.3836 26.3095
lfingers 7.12502
lthumb -12.3735 55.9233
rfemur -82.9629 -22.5454 19.7589
rtibia 111.149
rfoot -11.8948 5.80631
rtoes -6.45211
lfemur -82.5075 9.92788 -20.6771
ltibia 107.554
lfoot -10.2129 -13.0165
ltoes -4.96927
1704
root 1.7944 9.8792 -4.7942 171.318 122.088 182.725
lowerback 26.3556 -2.17389 -4.0819
upperback 12.2775 -2.99902 0.243676
thorax -0.681344 -1.38494 3.35646
lowerneck -21.2574 -8.16425 -14.5386
upperneck 9.91662 -8.54664 10.7368
head 7.59525 -3.71735 4.78714
rclavicle -5.24295e-014 7.00716e-015
rhumerus -25.5222 20.7506 -87.4223
rradius 100.15
rwrist 43.4149
rhand -40.6241 13.349
rfingers 7.12502
rthumb -13.5693 -16.1888
lclavicle -5.24295e-014 7.00716e-015
lhumerus -22.9376 -15.4873 87.8127
lradius 94.9615
lwrist -27.7861
lhand -39.3099 26.3474
lfingers 7.12502
lthumb -12.3025 55.9655
rfemur -82.9538 -22.664 19.6275
rtibia 111.166
rfoot -11.9125 5.85566
rtoes -6.54988
lfemur -82.4591 9.82562 -20.7949
ltibia 107.534
lfoot -10.1915 -13.0216
ltoes -4.56676
1705
root 1.7933 9.87897 -4.796 171.304 121.996 182.716
lowerback 26.3481 -2.18347 -4.09867
upperback 12.2606 -3.01338 0.299831
thorax -0.690602 -1.3945 3.43075
lowerneck -21.0498 -8.12046 -14.5005
upperneck 9.83625 -8.49896 10.5912
head 7.51927 -3.71229 4.74148
rclavicle 3.80424e-014 -2.57426e-014
rhumerus -25.5424 20.7534 -87.3339
rradius 100.162
rwrist 43.3245
rhand -40.589 13.4444
rfingers 7.12502
rthumb -13.5355 -16.0957
lclavicle 3.80424e-014 -2.57426e-014
lhumerus -22.9618 -15.5171 87.8727
lradius 94.9174
lwrist -27.7881
lhand -39.3041 26.4527
lfingers 7.12502
lthumb -12.2969 56.0711
rfemur -82.942 -22.7768 19.6164
rtibia 111.175
rfoot -11.9269 5.84676
rtoes -7.10533
lfemur -82.4447 9.7163 -20.7954
ltibia 107.509
lfoot -10.11 -13.0499
ltoes -4.10546
1706
root 1.79252 9.87987 -4.79593 171.165 121.944 182.544
lowerback 26.3034 -2.19496 -3.98807
upperback 12.2447 -3.0014 0.342306
thorax -0.693869 -1.38557 3.40966
lowerneck -20.8302 -8.10325 -14.3954
upperneck 9.75737 -8.49857 10.3857
head 7.44194 -3.73253 4.65797
rclavicle -1.07841e-014 1.34925e-014
rhumerus -25.5502 20.7403 -87.2512
rradius 100.138
rwrist 43.2551
rhand -40.6341 13.3879
rfingers 7.12502
rthumb -13.579 -16.1493
lclavicle -1.07841e-014 1.34925e-014
lhumerus -22.9787 -15.547 87.9473
lradius 94.8661
lwrist -27.8074
lhand -39.3592 26.4037
lfingers 7.12502
lthumb -12.35 56.0189
rfemur -82.9111 -22.8164 19.6893
rtibia 111.165
rfoot -11.9221 5.83954
rtoes -7.72615
lfemur -82.4628 9.68383 -20.7113
ltibia 107.49
lfoot -10.0682 -13.0899
ltoes -3.96506
1707
root 1.79098 9.88105 -4.79409 171.082 121.925 182.462
lowerback 26.2663 -2.1804 -3.94228
upperback 12.2206 -2.97181 0.39352
thorax -0.706072 -1.37086 3.43101
lowerneck -20.5912 -8.09173 -14.3473
upperneck 9.71407 -8.49193 10.1618
head 7.37399 -3.75425 4.57892
rclavicle -4.57826e-014 4.91992e-014
rhumerus -25.5922 20.7022 -87.1798
rradius 100.078
rwrist 43.2669
rhand -40.7374 13.2831
rfingers 7.12502
rthumb -13.6786 -16.2474
lclavicle -4.57826e-014 4.91992e-014
lhumerus -23.0546 -15.6354 88.0586
lradius 94.8485
lwrist -27.8149
lhand -39.4992 26.8449
lfingers 7.12502
lthumb -12.4849 56.452
rfemur -82.8743 -22.8053 19.7241
rtibia 111.152
rfoot -11.9393 5.80173
rtoes -7.4722
lfemur -82.4478 9.70866 -20.6797
ltibia 107.478
lfoot -10.0924 -13.0962
ltoes -3.99801
1708
root 1.78966 9.88356 -4.79358 171.03 121.901 182.422
lowerback 26.258 -2.19063 -3.91167
upperback 12.2121 -2.97705 0.427338
thorax -0.711172 -1.37334 3.45157
lowerneck -20.5036 -8.08068 -14.2985
upperneck 9.74652 -8.47964 10.0043
head 7.35839 -3.76319 4.52096
rclavicle 4.45371e-014 -3.42593e-014
rhumerus -25.5976 20.6937 -87.1665
rradius 100.016
rwrist 43.3059
rhand -40.7206 13.2229
rfingers 7.12502
rthumb -13.6624 -16.3086
lclavicle 4.45371e-014 -3.42593e-014
lhumerus -23.1259 -15.6789 88.0626
lradius 94.8986
lwrist -27.7602
lhand -39.5135 27.2554
lfingers 7.12502
lthumb -12.4987 56.8616
rfemur -82.8201 -22.8026 19.7323
rtibia 111.142
rfoot -11.9639 5.77382
rtoes -7.59036
lfemur -82.4116 9.70985 -20.6469
ltibia 107.459
lfoot -10.0442 -13.119
ltoes -3.7198
1709
root 1.78928 9.88374 -4.79405 171.047 121.86 182.473
lowerback 26.2914 -2.21975 -3.89682
upperback 12.1801 -3.01469 0.414213
thorax -0.761396 -1.38971 3.44064
lowerneck -20.5377 -8.07697 -14.3744
upperneck 10.0335 -8.4659 9.9967
head 7.45981 -3.76164 4.53223
rclavicle -1.18028e-016 1.75552e-014
rhumerus -25.6709 20.7325 -87.2162
rradius 100.004
rwrist 43.3125
rhand -40.6933 13.2456
rfingers 7.12502
rthumb -13.6361 -16.2878
lclavicle -1.18028e-016 1.75552e-014
lhumerus -23.2034 -15.6393 88.0124
lradius 94.8689
lwrist -27.7205
lhand -39.5487 27.0371
lfingers 7.12502
lthumb -12.5327 56.6412
rfemur -82.8041 -22.8844 19.7151
rtibia 111.147
rfoot -11.9689 5.79371
rtoes -7.47439
lfemur -82.371 9.71107 -20.6966
ltibia 107.44
lfoot -10.0181 -13.1848
ltoes -3.55074
1710
root 1.79011 9.88307 -4.79351 171.085 121.813 182.538
lowerback 26.2891 -2.2586 -3.92082
upperback 12.153 -3.07283 0.399991
thorax -0.784912 -1.41891 3.45405
lowerneck -20.5128 -8.03645 -14.4477
upperneck 10.2856 -8.40536 9.96685
head 7.53322 -3.74134 4.54366
rclavicle 1.34646e-014 3.44084e-014
rhumerus -25.6997 20.7965 -87.2667
rradius 99.9519
rwrist 43.3459
rhand -40.6564 13.3933
rfingers 7.12502
rthumb -13.6005 -16.1425
lclavicle 1.34646e-014 3.44084e-014
lhumerus -23.2616 -15.5223 88.0151
lradius 94.8056
lwrist -27.7302
lhand -39.5991 26.8454
lfingers 7.12502
lthumb -12.5813 56.4466
rfemur -82.7888 -22.9717 19.6693
rtibia 111.152
rfoot -11.961 5.86307
rtoes -6.72153
lfemur -82.3266 9.66203 -20.7292
ltibia 107.424
lfoot -10.0255 -13.1918
ltoes -3.40141
1711
root 1.78914 9.88414 -4.79344 171.067 121.757 182.541
lowerback 26.2714 -2.30828 -3.91837
upperback 12.1411 -3.13708 0.385421
thorax -0.785645 -1.45055 3.45247
lowerneck -20.3116 -7.9257 -14.3495
upperneck 10.2751 -8.28397 9.80196
head 7.46926 -3.70008 4.49356
rclavicle 3.28927e-014 -2.61775e-014
rhumerus -25.7306 20.834 -87.3592
rradius 99.9371
rwrist 43.3874
rhand -40.6352 13.5814
rfingers 7.12502
rthumb -13.58 -15.9557
lclavicle 3.28927e-014 -2.61775e-014
lhumerus -23.3043 -15.3798 87.9905
lradius 94.6903
lwrist -27.9594
lhand -39.5626 26.527
lfingers 7.12502
lthumb -12.5461 56.1304
rfemur -82.7448 -23.0285 19.6551
rtibia 111.137
rfoot -11.9931 5.8556
rtoes -6.79344
lfemur -82.2816 9.59715 -20.7328
ltibia 107.405
lfoot -10.0925 -13.1624
ltoes -3.83572
1712
root 1.78893 9.88483 -4.7939 171.14 121.718 182.646
lowerback 26.2305 -2.33009 -3.93224
upperback 12.146 -3.16832 0.346797
thorax -0.759911 -1.46607 3.42418
lowerneck -20.1106 -7.76398 -14.0727
upperneck 10.2124 -8.11235 9.47673
head 7.36687 -3.64094 4.36791
rclavicle 1.25222e-013 -1.42007e-014
rhumerus -25.7681 20.8398 -87.4561
rradius 99.9419
rwrist 43.4244
rhand -40.7284 13.3473
rfingers 7.12502
rthumb -13.6699 -16.1837
lclavicle 1.25222e-013 -1.42007e-014
lhumerus -23.3347 -15.3249 87.9163
lradius 94.4946
lwrist -28.5005
lhand -39.7789 26.1849
lfingers 7.12502
lthumb -12.7546 55.7753
rfemur -82.709 -23.0904 19.5722
rtibia 111.122
rfoot -11.941 5.93072
rtoes -6.73604
lfemur -82.2563 9.57086 -20.7932
ltibia 107.393
lfoot -10.0736 -13.1945
ltoes -3.58275
